<svg width="281" height="74" viewBox="0 0 281 74" fill="none" xmlns="http://www.w3.org/2000/svg">
<path fill-rule="evenodd" clip-rule="evenodd" d="M28.7502 28.1038C26.9001 26.8952 24.725 26.25 22.5 26.25V15.25C26.9501 15.25 31.3002 16.5403 35.0003 18.9577C38.7005 21.3751 41.5843 24.811 43.2873 28.8309C44.9902 32.8509 45.4358 37.2744 44.5677 41.542C43.6995 45.8095 41.5566 49.7296 38.4099 52.8063C35.2632 55.8831 31.2541 57.9784 26.8895 58.8273C22.525 59.6762 18.0009 59.2404 13.8896 57.5754C9.77829 55.9102 6.26426 53.0905 3.79194 49.4725C1.3196 45.8546 0 41.6012 0 37.25H11.25C11.25 39.4256 11.9098 41.5523 13.146 43.3613C14.3821 45.1702 16.1391 46.5801 18.1949 47.4127C20.2505 48.2453 22.5125 48.4631 24.6948 48.0386C26.877 47.6142 28.8816 46.5666 30.455 45.0282C32.0283 43.4898 33.0998 41.5298 33.5338 39.396C33.9679 37.2622 33.7452 35.0504 32.8937 33.0405C32.0421 31.0305 30.6002 29.3125 28.7502 28.1038Z" fill="#31A0FE"/>
<path fill-rule="evenodd" clip-rule="evenodd" d="M10 14.75C10 16.0632 9.74135 17.3636 9.2388 18.5768C8.73625 19.7901 7.99965 20.8925 7.07106 21.8211C6.14249 22.7497 5.04009 23.4863 3.82683 23.9888C2.61357 24.4913 1.31322 24.75 4.3711e-07 24.75L0 34.75C2.62644 34.75 5.22715 34.2327 7.65368 33.2276C10.0802 32.2225 12.285 30.7493 14.1421 28.8921C15.9993 27.035 17.4725 24.8302 18.4776 22.4037C19.4827 19.9772 20 17.3764 20 14.75L10 14.75Z" fill="#31A0FE"/>
<path d="M65.032 46.288C63.736 46.288 62.528 46.08 61.408 45.664C60.304 45.232 59.344 44.624 58.528 43.84C57.712 43.056 57.072 42.136 56.608 41.08C56.16 40.024 55.936 38.864 55.936 37.6C55.936 36.336 56.16 35.176 56.608 34.12C57.072 33.064 57.712 32.144 58.528 31.36C59.36 30.576 60.328 29.976 61.432 29.56C62.536 29.128 63.744 28.912 65.056 28.912C66.512 28.912 67.824 29.168 68.992 29.68C70.176 30.176 71.168 30.912 71.968 31.888L69.472 34.192C68.896 33.536 68.256 33.048 67.552 32.728C66.848 32.392 66.08 32.224 65.248 32.224C64.464 32.224 63.744 32.352 63.088 32.608C62.432 32.864 61.864 33.232 61.384 33.712C60.904 34.192 60.528 34.76 60.256 35.416C60 36.072 59.872 36.8 59.872 37.6C59.872 38.4 60 39.128 60.256 39.784C60.528 40.44 60.904 41.008 61.384 41.488C61.864 41.968 62.432 42.336 63.088 42.592C63.744 42.848 64.464 42.976 65.248 42.976C66.08 42.976 66.848 42.816 67.552 42.496C68.256 42.16 68.896 41.656 69.472 40.984L71.968 43.288C71.168 44.264 70.176 45.008 68.992 45.52C67.824 46.032 66.504 46.288 65.032 46.288ZM74.6936 46V29.2H78.5816V42.832H87.0056V46H74.6936ZM97.1567 46.288C95.8287 46.288 94.5967 46.072 93.4607 45.64C92.3407 45.208 91.3647 44.6 90.5327 43.816C89.7167 43.032 89.0767 42.112 88.6127 41.056C88.1647 40 87.9407 38.848 87.9407 37.6C87.9407 36.352 88.1647 35.2 88.6127 34.144C89.0767 33.088 89.7247 32.168 90.5567 31.384C91.3887 30.6 92.3647 29.992 93.4847 29.56C94.6047 29.128 95.8207 28.912 97.1327 28.912C98.4607 28.912 99.6767 29.128 100.781 29.56C101.901 29.992 102.869 30.6 103.685 31.384C104.517 32.168 105.165 33.088 105.629 34.144C106.093 35.184 106.325 36.336 106.325 37.6C106.325 38.848 106.093 40.008 105.629 41.08C105.165 42.136 104.517 43.056 103.685 43.84C102.869 44.608 101.901 45.208 100.781 45.64C99.6767 46.072 98.4687 46.288 97.1567 46.288ZM97.1327 42.976C97.8847 42.976 98.5727 42.848 99.1967 42.592C99.8367 42.336 100.397 41.968 100.877 41.488C101.357 41.008 101.725 40.44 101.981 39.784C102.253 39.128 102.389 38.4 102.389 37.6C102.389 36.8 102.253 36.072 101.981 35.416C101.725 34.76 101.357 34.192 100.877 33.712C100.413 33.232 99.8607 32.864 99.2207 32.608C98.5807 32.352 97.8847 32.224 97.1327 32.224C96.3807 32.224 95.6847 32.352 95.0447 32.608C94.4207 32.864 93.8687 33.232 93.3887 33.712C92.9087 34.192 92.5327 34.76 92.2607 35.416C92.0047 36.072 91.8767 36.8 91.8767 37.6C91.8767 38.384 92.0047 39.112 92.2607 39.784C92.5327 40.44 92.9007 41.008 93.3647 41.488C93.8447 41.968 94.4047 42.336 95.0447 42.592C95.6847 42.848 96.3807 42.976 97.1327 42.976ZM116.811 46.288C114.427 46.288 112.563 45.624 111.219 44.296C109.875 42.968 109.203 41.072 109.203 38.608V29.2H113.091V38.464C113.091 40.064 113.419 41.216 114.075 41.92C114.731 42.624 115.651 42.976 116.835 42.976C118.019 42.976 118.939 42.624 119.595 41.92C120.251 41.216 120.579 40.064 120.579 38.464V29.2H124.419V38.608C124.419 41.072 123.747 42.968 122.403 44.296C121.059 45.624 119.195 46.288 116.811 46.288ZM128.361 46V29.2H135.993C137.817 29.2 139.425 29.552 140.817 30.256C142.209 30.944 143.297 31.912 144.081 33.16C144.865 34.408 145.257 35.888 145.257 37.6C145.257 39.296 144.865 40.776 144.081 42.04C143.297 43.288 142.209 44.264 140.817 44.968C139.425 45.656 137.817 46 135.993 46H128.361ZM132.249 42.808H135.801C136.921 42.808 137.889 42.6 138.705 42.184C139.537 41.752 140.177 41.144 140.625 40.36C141.089 39.576 141.321 38.656 141.321 37.6C141.321 36.528 141.089 35.608 140.625 34.84C140.177 34.056 139.537 33.456 138.705 33.04C137.889 32.608 136.921 32.392 135.801 32.392H132.249V42.808ZM160.706 46.288C159.362 46.288 158.074 46.112 156.842 45.76C155.61 45.392 154.618 44.92 153.866 44.344L155.186 41.416C155.906 41.928 156.754 42.352 157.73 42.688C158.722 43.008 159.722 43.168 160.73 43.168C161.498 43.168 162.114 43.096 162.578 42.952C163.058 42.792 163.41 42.576 163.634 42.304C163.858 42.032 163.97 41.72 163.97 41.368C163.97 40.92 163.794 40.568 163.442 40.312C163.09 40.04 162.626 39.824 162.05 39.664C161.474 39.488 160.834 39.328 160.13 39.184C159.442 39.024 158.746 38.832 158.042 38.608C157.354 38.384 156.722 38.096 156.146 37.744C155.57 37.392 155.098 36.928 154.73 36.352C154.378 35.776 154.202 35.04 154.202 34.144C154.202 33.184 154.458 32.312 154.97 31.528C155.498 30.728 156.282 30.096 157.322 29.632C158.378 29.152 159.698 28.912 161.282 28.912C162.338 28.912 163.378 29.04 164.402 29.296C165.426 29.536 166.33 29.904 167.114 30.4L165.914 33.352C165.13 32.904 164.346 32.576 163.562 32.368C162.778 32.144 162.01 32.032 161.258 32.032C160.506 32.032 159.89 32.12 159.41 32.296C158.93 32.472 158.586 32.704 158.378 32.992C158.17 33.264 158.066 33.584 158.066 33.952C158.066 34.384 158.242 34.736 158.594 35.008C158.946 35.264 159.41 35.472 159.986 35.632C160.562 35.792 161.194 35.952 161.882 36.112C162.586 36.272 163.282 36.456 163.97 36.664C164.674 36.872 165.314 37.152 165.89 37.504C166.466 37.856 166.93 38.32 167.282 38.896C167.65 39.472 167.834 40.2 167.834 41.08C167.834 42.024 167.57 42.888 167.042 43.672C166.514 44.456 165.722 45.088 164.666 45.568C163.626 46.048 162.306 46.288 160.706 46.288ZM174.166 35.968H182.254V38.992H174.166V35.968ZM174.454 42.88H183.598V46H170.59V29.2H183.286V32.32H174.454V42.88ZM194.832 46.288C193.536 46.288 192.328 46.08 191.208 45.664C190.104 45.232 189.144 44.624 188.328 43.84C187.512 43.056 186.872 42.136 186.408 41.08C185.96 40.024 185.736 38.864 185.736 37.6C185.736 36.336 185.96 35.176 186.408 34.12C186.872 33.064 187.512 32.144 188.328 31.36C189.16 30.576 190.128 29.976 191.232 29.56C192.336 29.128 193.544 28.912 194.856 28.912C196.312 28.912 197.624 29.168 198.792 29.68C199.976 30.176 200.968 30.912 201.768 31.888L199.272 34.192C198.696 33.536 198.056 33.048 197.352 32.728C196.648 32.392 195.88 32.224 195.048 32.224C194.264 32.224 193.544 32.352 192.888 32.608C192.232 32.864 191.664 33.232 191.184 33.712C190.704 34.192 190.328 34.76 190.056 35.416C189.8 36.072 189.672 36.8 189.672 37.6C189.672 38.4 189.8 39.128 190.056 39.784C190.328 40.44 190.704 41.008 191.184 41.488C191.664 41.968 192.232 42.336 192.888 42.592C193.544 42.848 194.264 42.976 195.048 42.976C195.88 42.976 196.648 42.816 197.352 42.496C198.056 42.16 198.696 41.656 199.272 40.984L201.768 43.288C200.968 44.264 199.976 45.008 198.792 45.52C197.624 46.032 196.304 46.288 194.832 46.288ZM211.864 46.288C209.48 46.288 207.616 45.624 206.272 44.296C204.928 42.968 204.256 41.072 204.256 38.608V29.2H208.144V38.464C208.144 40.064 208.472 41.216 209.128 41.92C209.784 42.624 210.704 42.976 211.888 42.976C213.072 42.976 213.992 42.624 214.648 41.92C215.304 41.216 215.632 40.064 215.632 38.464V29.2H219.472V38.608C219.472 41.072 218.8 42.968 217.456 44.296C216.112 45.624 214.248 46.288 211.864 46.288ZM223.414 46V29.2H230.686C232.19 29.2 233.486 29.448 234.574 29.944C235.662 30.424 236.502 31.12 237.094 32.032C237.686 32.944 237.982 34.032 237.982 35.296C237.982 36.544 237.686 37.624 237.094 38.536C236.502 39.432 235.662 40.12 234.574 40.6C233.486 41.08 232.19 41.32 230.686 41.32H225.574L227.302 39.616V46H223.414ZM234.094 46L229.894 39.904H234.046L238.294 46H234.094ZM227.302 40.048L225.574 38.224H230.47C231.67 38.224 232.566 37.968 233.158 37.456C233.75 36.928 234.046 36.208 234.046 35.296C234.046 34.368 233.75 33.648 233.158 33.136C232.566 32.624 231.67 32.368 230.47 32.368H225.574L227.302 30.52V40.048ZM241.162 46V29.2H245.05V46H241.162ZM252.617 46V32.368H247.241V29.2H261.881V32.368H256.505V46H252.617ZM267.921 46V39.136L268.809 41.488L261.417 29.2H265.545L271.209 38.632H268.833L274.521 29.2H278.337L270.945 41.488L271.809 39.136V46H267.921Z" fill="white"/>
</svg>
