<svg width="45" height="46" viewBox="0 0 45 46" fill="none" xmlns="http://www.w3.org/2000/svg">
<path fill-rule="evenodd" clip-rule="evenodd" d="M28.7502 14.1038C26.9001 12.8952 24.725 12.25 22.5 12.25V1.25C26.9501 1.25 31.3002 2.54028 35.0003 4.95767C38.7005 7.37505 41.5843 10.811 43.2873 14.8309C44.9902 18.8509 45.4358 23.2744 44.5677 27.542C43.6995 31.8095 41.5566 35.7296 38.4099 38.8063C35.2632 41.8831 31.2541 43.9784 26.8895 44.8273C22.525 45.6762 18.0009 45.2404 13.8896 43.5754C9.77829 41.9102 6.26426 39.0905 3.79194 35.4725C1.3196 31.8546 0 27.6012 0 23.25H11.25C11.25 25.4256 11.9098 27.5523 13.146 29.3613C14.3821 31.1702 16.1391 32.5801 18.1949 33.4127C20.2505 34.2453 22.5125 34.4631 24.6948 34.0386C26.877 33.6142 28.8816 32.5666 30.455 31.0282C32.0283 29.4898 33.0998 27.5298 33.5338 25.396C33.9679 23.2622 33.7452 21.0504 32.8937 19.0405C32.0421 17.0305 30.6002 15.3125 28.7502 14.1038Z" fill="#31A0FE"/>
<path fill-rule="evenodd" clip-rule="evenodd" d="M10 0.750004C10 2.06322 9.74135 3.36358 9.2388 4.57683C8.73625 5.79009 7.99965 6.89248 7.07106 7.82107C6.14249 8.74966 5.04009 9.48625 3.82683 9.9888C2.61357 10.4913 1.31322 10.75 4.3711e-07 10.75L0 20.75C2.62644 20.75 5.22715 20.2327 7.65368 19.2276C10.0802 18.2225 12.285 16.7493 14.1421 14.8921C15.9993 13.035 17.4725 10.8302 18.4776 8.40367C19.4827 5.97715 20 3.37643 20 0.75L10 0.750004Z" fill="#31A0FE"/>
</svg>
